<svg width="301" height="259" viewBox="0 0 301 259" fill="none" xmlns="http://www.w3.org/2000/svg">
<path d="M125.531 190.239C124.585 190.542 123.07 191.047 121.744 190.441C115.212 187.21 108.869 186.301 106.124 185.393C101.296 183.777 96.5624 181.656 92.0183 179.031C78.8593 171.054 67.8777 159.543 60.1148 145.709C59.5468 144.699 58.9787 143.689 58.4107 142.579C47.0504 121.273 44.1157 96.5335 50.2692 72.9051C56.328 49.2766 70.7177 29.5863 90.6929 17.4691L90.7876 17.3682C130.833 -5.35146 181.007 9.08813 204.864 50.2864C213.384 64.625 218.118 81.2861 218.591 98.2501C218.686 103.299 218.212 108.348 217.36 113.195C216.887 116.022 213.384 125.009 212.911 134.299C212.816 136.52 211.68 137.126 209.408 138.842C207.704 140.155 204.485 142.983 204.675 140.054C205.053 131.471 209.219 115.517 209.881 111.68C210.639 107.237 211.017 102.794 211.017 98.351C210.639 82.8007 206.284 67.6543 198.521 54.5274C176.653 16.9643 131.022 3.83738 94.385 24.4365C76.2085 35.4429 63.1442 53.4167 57.5587 74.9246C51.9732 96.5335 54.624 119.051 65.0376 138.54C65.5109 139.549 66.0789 140.458 66.6469 141.367C73.7471 153.989 83.8767 164.49 95.8051 171.862C99.7812 174.184 104.041 176.103 108.396 177.516C111.709 178.627 123.354 181.959 130.265 185.796C132.158 186.806 132.631 187.513 129.697 188.523C128.371 189.23 126.762 189.835 125.531 190.239Z" fill="white"/>
<path d="M60.7788 136.721C19.3137 173.477 -2.83888 209.727 7.6694 229.115C22.8165 257.085 99.8772 239.818 179.778 190.542C259.679 141.265 312.22 78.7612 297.073 50.7908C287.038 32.3121 249.928 33.6248 202.688 50.8917" stroke="white" stroke-width="2" stroke-miterlimit="10"/>
<path d="M63.4295 142.881C30.2006 173.982 12.9708 203.871 21.9643 220.33C35.5967 245.473 104.895 229.923 176.843 185.695C248.792 141.467 296.032 85.1228 282.399 59.9797C273.974 44.4294 244.248 44.4294 205.812 57.1524" stroke="white" stroke-width="2" stroke-miterlimit="10"/>
<path d="M67.1216 149.95C43.1703 174.386 31.3367 197.106 38.4369 210.132C50.3652 232.044 110.859 218.513 173.624 179.839C236.39 141.165 277.666 91.9897 265.832 70.0778C259.205 57.8597 237.526 56.648 208.841 64.6251" stroke="white" stroke-width="2" stroke-miterlimit="10"/>
<path d="M74.2211 153.585C56.8966 172.669 48.7551 190.037 54.3406 200.337C64.5649 219.219 116.633 207.607 170.594 174.285C224.556 140.963 260.057 98.7548 249.832 79.8723C245.004 70.9864 230.899 68.8659 211.586 72.602" stroke="white" stroke-width="2" stroke-miterlimit="10"/>
<path d="M168.133 226.994C169.742 226.994 171.446 226.591 172.961 225.682C172.961 225.682 173.055 225.682 173.055 225.581L215.372 198.923C219.538 196.298 220.201 191.148 219.538 185.998C218.875 180.747 218.875 182.262 218.023 172.265C217.929 170.549 215.846 172.972 215.846 172.972C215.846 172.972 213.384 174.992 212.722 175.699C211.87 176.607 211.112 177.314 211.396 179.738C211.964 184.584 212.248 185.19 212.532 188.825C212.627 190.239 212.532 191.451 211.586 192.158L169.363 218.815C168.322 219.421 167.281 218.815 166.334 218.109C164.724 216.998 165.292 217.099 158.098 212.353C156.394 211.242 154.879 212.656 152.985 213.464C150.808 214.473 148.725 215.382 150.24 216.291C158.287 221.239 156.678 220.33 160.559 222.955C163.02 224.874 165.198 226.994 168.133 226.994Z" fill="white"/>
<path d="M24.7079 55.1333C26.2226 55.1333 25.5599 51.9021 27.0746 50.4884C28.7787 48.9738 31.4294 49.4787 31.4294 47.964C31.4294 46.3484 28.4 47.0552 27.0746 45.4396C25.6546 43.622 26.1279 40.5928 24.7079 40.5928H24.8026C23.2879 40.5928 23.9505 43.824 22.4358 45.2377C20.7318 46.7523 18.0811 46.2474 18.0811 47.7621C18.0811 49.3777 21.1105 48.6709 22.4358 50.2865C23.8559 52.104 23.4772 55.1333 24.7079 55.1333Z" fill="white"/>
<path d="M8.99358 146.314C11.0763 146.314 10.1296 141.972 12.307 140.054C14.5791 138.034 18.2712 138.64 18.2712 136.621C18.2712 134.399 14.2004 135.409 12.4017 133.086C10.5083 130.663 11.0763 126.523 9.18291 126.523H9.27759C7.19486 126.523 8.14155 130.865 5.96416 132.784C3.6921 134.803 0 134.197 0 136.217C0 138.438 4.07077 137.428 5.86949 139.751C7.76287 142.174 7.19487 146.314 9.08825 146.314" fill="white"/>
<path d="M124.205 258.297C125.247 258.297 124.773 256.176 125.815 255.268C126.951 254.258 128.75 254.561 128.75 253.652C128.75 252.541 126.761 253.046 125.909 251.935C124.963 250.724 125.247 248.805 124.395 248.805H124.489C123.448 248.805 123.921 250.926 122.88 251.834C121.744 252.844 119.945 252.541 119.945 253.45C119.945 254.561 121.933 254.056 122.785 255.167C123.637 256.378 123.353 258.297 124.205 258.297Z" fill="white"/>
<path d="M216.884 0C215.275 0 216.032 3.33222 214.328 4.84686C212.624 6.3615 209.784 5.85663 209.784 7.47224C209.784 9.18884 212.908 8.38103 214.328 10.1986C215.748 12.0162 215.275 15.2474 216.79 15.2474H216.695C218.304 15.2474 217.547 11.9152 219.251 10.4005C220.955 8.88591 223.795 9.39079 223.795 7.77518C223.795 6.05858 220.671 6.86638 219.251 5.04881C217.831 3.23124 218.304 0 216.884 0Z" fill="white"/>
<path d="M266.4 185.897C268.294 185.897 267.442 181.959 269.335 180.243C271.418 178.425 274.731 179.031 274.731 177.112C274.731 175.093 271.039 176.002 269.43 173.982C267.726 171.761 268.294 168.025 266.495 168.025H266.59C264.696 168.025 265.548 171.963 263.655 173.679C261.572 175.497 258.259 174.891 258.259 176.81C258.259 178.829 261.951 177.92 263.56 179.94C265.264 182.161 264.696 185.897 266.495 185.897" fill="white"/>
<path d="M116.442 98.9567C116.442 89.2629 123.827 81.2858 132.915 81.2858C142.003 81.2858 149.482 89.162 149.482 98.8557C149.482 108.549 142.098 116.527 133.009 116.527C123.827 116.627 116.442 108.751 116.442 98.9567Z" stroke="white" stroke-width="2" stroke-miterlimit="10"/>
<path d="M168.286 168.452C167.446 168.847 166.886 168.847 166.233 167.564L138.89 117.326C137.864 115.451 138.424 115.55 140.197 114.464C141.97 113.378 142.997 112.589 143.93 114.464L171.272 164.702C172.299 166.577 171.552 166.577 169.779 167.663C169.219 168.057 169.033 168.156 168.286 168.452Z" fill="white"/>
<path d="M183.657 233.861L216.697 213.161" stroke="white" stroke-width="2" stroke-miterlimit="10" stroke-linecap="round"/>
<path d="M195.587 242.443L217.929 228.508" stroke="white" stroke-width="2" stroke-miterlimit="10" stroke-linecap="round"/>
<path d="M208.273 251.531L219.35 244.665" stroke="white" stroke-width="2" stroke-miterlimit="10" stroke-linecap="round"/>
</svg>
